<?xml version="1.0" encoding="utf-8" ?>
<svg xmlns="http://www.w3.org/2000/svg" xmlns:xlink="http://www.w3.org/1999/xlink" width="500" height="499">
	<path fill="white" d="M-0 -0L500 0L500 500L-0 500L0 -0Z"/>
	<path fill="#6F422B" d="M67.2225 114.606L85.7369 114.588L85.4852 119.388L78.7011 119.187L78.5105 136.066L78.72 142.039L72.9125 142.066L72.9628 119.238L65.6775 119.337C65.6931 118.111 65.5733 115.656 66.25 114.684L67.2225 114.606Z"/>
	<path fill="#6F422B" d="M390.026 361.487L405.301 361.522L405.065 365.983L395.485 365.633L395.301 369.861C397.395 370.364 400.636 370.053 402.815 369.872L403.109 369.845L402.979 374.3C401.847 374.289 396.524 373.93 395.757 374.228C395.567 374.301 395.449 374.493 395.295 374.625L395.267 378.774L405.096 378.719L404.949 383.05L390.095 383.057L390.026 361.487Z"/>
	<path fill="#6F422B" d="M115.01 120.537L130.334 120.555L129.939 125.035L120.428 124.758L120.429 128.971L128.083 128.971C128.057 130.221 128.238 132.125 127.849 133.275L123.003 133.241C122.177 133.238 121.181 133.092 120.417 133.441L120.287 134.375L120.281 137.776L129.956 137.707C130.366 138.586 130.03 140.963 130.006 142.016L115.075 142.007L115.01 120.537Z"/>
	<path fill="#6F422B" d="M307.039 355.344C309.798 355.033 312.989 355.926 315.555 356.847L314.287 362.216C312.98 361.337 311.55 360.685 309.991 360.408C307.971 360.05 305.654 360.12 303.968 361.424C302.573 362.503 301.764 364.634 301.537 366.325L301.485 366.75C301.228 368.694 301.257 370.735 301.73 372.648C302.185 374.488 303.12 376.706 304.892 377.639C308.155 379.359 311.331 377.916 314.494 376.828L314.979 377.125L314.594 381.913C312.911 382.532 311.272 383.025 309.489 383.263C305.98 383.732 302.298 383.032 299.496 380.796C296.899 378.724 295.692 375.419 295.328 372.209C294.823 367.75 295.44 362.963 298.364 359.408C300.622 356.663 303.616 355.721 307.039 355.344Z"/>
	<path fill="#6F422B" d="M89.1056 120.492L94.5345 120.538L94.4471 129.027L103.255 129.015L103.27 120.486L108.697 120.484L108.519 141.741L107.875 142.055L103.228 142.032L103.269 133.505L94.302 133.564L94.4235 139.214C94.4568 140.096 94.6317 141.165 94.3889 142.013L89.0356 142.191L89.1056 120.492Z"/>
	<path fill="#6F422B" d="M365.076 361.526L370.67 361.484C371.182 361.626 378.889 373.874 379.82 375.177L379.665 361.73L384.657 361.507C384.41 363.751 384.493 366.117 384.447 368.379L384.514 382.98L378.697 383.05L369.993 369.435L369.989 383.015L365.045 383.07L365.076 361.526Z"/>
	<path fill="#6F422B" d="M342.045 361.504C345.42 361.497 349.161 361.179 352.488 361.655L352.875 361.714C354.675 361.964 356.384 362.539 357.602 363.976C358.812 365.404 359.02 367.537 358.749 369.323C358.385 371.723 356.769 373.153 354.916 374.464L360.51 382.442L355.806 383.229L354.875 383.315C353.9 382.879 353.513 381.646 353.019 380.75C352.2 379.261 351.317 377.824 350.593 376.283L350.469 376.014L347.305 376.155L347.494 383.074L342.211 383.003C341.962 382.353 342.129 381.435 342.153 380.733L342.239 375.363L342.045 361.504Z"/>
	<path fill="white" d="M347.577 365.34C349.553 365.443 350.972 365.317 352.625 366.548C353.011 367.151 353.298 367.687 353.273 368.424C353.236 369.513 352.811 370.356 352.077 371.125C350.884 372.261 348.967 372.047 347.443 372.036C347.286 369.775 347.417 367.594 347.577 365.34Z"/>
	<path fill="#6F422B" d="M410.01 361.513C413.366 361.468 417.118 361.211 420.433 361.665L420.875 361.729L422.312 361.931C423.746 362.224 425.076 363.13 425.865 364.364C426.782 365.8 427.152 367.807 426.754 369.469C426.334 371.222 425.189 373.061 423.644 374.023C423.237 374.277 423.146 374.315 422.972 374.75L428.467 382.363L423.807 383.205L423 383.403C421.5 382.773 419.286 377.63 418.362 376.085C417.379 376.076 416.222 375.858 415.375 376.36C415.131 378.477 415.434 380.859 415.51 382.998C413.731 383.023 411.838 383.207 410.076 382.983L410.01 361.513Z"/>
	<path fill="white" d="M415.624 365.289C416.852 365.486 418.33 365.336 419.485 365.816C420.339 366.17 420.819 366.695 421.222 367.5C421.237 369.001 421.03 370.009 420.08 371.194L419.858 371.34L419.495 371.546C418.255 372.28 416.835 372.038 415.443 371.976C415.208 371.474 415.362 370.621 415.389 370.057L415.624 365.289Z"/>
	<path fill="#6F422B" d="M327.065 361.339C329.456 361.095 332.08 361.485 334.125 362.796C336.113 364.071 337.548 366.275 338.042 368.582C338.755 371.908 338.336 376.111 336.46 378.973C334.761 381.565 332.216 382.643 329.285 383.208C327.757 383.429 326.335 383.429 324.834 383.022C322.187 382.303 320.227 381.077 318.875 378.646C317.379 375.957 317.04 372.096 317.848 369.131C318.251 367.648 318.702 366.451 319.636 365.196C321.565 362.603 323.976 361.789 327.065 361.339Z"/>
	<path fill="white" d="M327.716 365.564L328.755 365.648C329.916 365.826 331.072 366.311 331.755 367.307C332.973 369.081 332.976 372.876 332.605 374.923L332.542 375.25C332.402 376.022 332.201 376.838 331.756 377.5C331.017 378.6 329.774 378.856 328.562 379.086C327.363 379.044 325.741 378.997 324.765 378.209C323.959 377.558 323.624 376.605 323.426 375.614C322.967 373.315 322.677 369.006 324.137 367.025C324.909 365.978 326.524 365.757 327.716 365.564Z"/>
	<path fill="#6F422B" d="M399.099 161.592L416.702 161.594C420.307 161.602 424.071 161.39 427.638 161.94C428.629 162.653 429.668 163.371 430.178 164.528C430.615 165.519 430.502 166.913 430.506 167.978L430.508 174.086L430.511 197.051L430.511 283.08L430.509 310.115L430.518 323.39C430.493 324.056 430.413 324.577 430.153 325.198L430.012 325.5C429.848 325.869 429.709 326.155 429.445 326.467C428.339 327.776 427.543 328.14 425.866 328.312C421.714 328.737 417.229 328.392 413.046 328.402L403.525 328.418C401.689 328.416 399.688 328.555 397.875 328.216C397.022 328.057 396.313 327.606 395.665 327.04C395.081 326.53 394.501 325.863 394.323 325.089C393.775 322.714 394.035 319.814 394.031 317.374C394.021 311.023 394.401 304.432 393.95 298.109L338.694 298.227L338.645 303.504L338.686 316.882C338.702 319.204 338.989 321.977 338.577 324.245C338.404 325.195 337.977 326.175 337.282 326.858C335.432 328.676 332.649 328.385 330.247 328.397L323.495 328.416L312.628 328.417C310.345 328.418 307.668 328.652 305.458 328.047C304.667 327.831 303.922 327.274 303.375 326.676C302.759 326.003 302.398 325.079 302.304 324.178C302.035 321.594 302.172 318.868 302.17 316.268L302.163 302.812L302.267 262.302L394.03 262.522L394.023 192.94L394.021 173.525C394.021 171.088 393.451 167.108 394.338 164.911L394.467 164.625C394.583 164.358 394.68 164.111 394.856 163.876C395.978 162.382 397.327 161.864 399.099 161.592Z"/>
	<path fill="white" d="M399.766 167.221L424.855 167.237L424.808 322.764L406.832 322.784C404.909 322.783 401.498 323.228 399.743 322.638L399.726 292.542L332.984 292.578L332.989 322.769L307.808 322.772L307.79 268.015L399.736 268.182L399.766 167.221Z"/>
	<path fill="#6F422B" d="M71.2982 161.59C75.018 161.478 104.391 161.187 105.621 162.091L105.879 162.354C107.699 164.185 109.13 166.369 110.617 168.471L116.457 176.701L136.588 204.994L140.96 211.179C141.613 212.091 142.252 213.215 143.099 213.932L158.516 192.424L201.031 192.462L201.025 165.145C201.445 164.464 201.882 163.72 202.478 163.175C203.576 162.171 204.51 161.786 205.979 161.646C209.057 161.351 212.368 161.58 215.47 161.584L233.662 161.606L283.224 161.615L283.234 196.386L237.529 196.489L237.535 227.253L278.819 227.257L291.344 227.262C293.652 227.266 296.11 227.112 298.396 227.387C299.989 227.579 300.91 227.911 302.037 229.022L302.283 229.275L302.168 190.537L302.136 172.658C302.143 170.386 301.684 166.41 302.651 164.399C303.086 163.494 304.649 161.963 305.658 161.764C306.72 161.554 308.065 161.644 309.166 161.619L317.25 161.576L327.797 161.543C330.093 161.541 332.443 161.43 334.721 161.779C335.585 161.912 336.427 162.389 337.079 162.957C337.762 163.552 338.306 164.217 338.468 165.125C338.854 167.295 338.674 169.787 338.676 171.99L338.66 184.035L338.675 218.783L338.708 237.11L302.98 237.156L302.992 251.9C302.989 253.996 303.419 257.545 302.473 259.375C301.904 260.475 300.635 261.545 299.423 261.841C297.906 262.213 296.104 262.082 294.548 262.093L285.758 262.112L254.875 262.131L237.529 262.025L237.486 292.738L283.123 292.766C283.4 293.626 283.257 294.728 283.256 295.635L283.251 301.888L283.209 328.315C278.916 328.725 274.349 328.399 270.029 328.395L244.667 328.386L219.46 328.394L210.534 328.421C208.641 328.422 206.482 328.551 204.643 328.095L204.375 328.022C203.549 327.805 202.971 327.386 202.36 326.784C201.369 325.808 201.12 324.266 201.023 322.935C200.71 318.63 200.997 314.085 200.996 309.759L200.995 282.527L200.979 194.847L172.628 234.818L166.659 243.238C165.046 245.444 162.932 247.858 161.804 250.344L161.683 250.625C160.844 252.48 161.275 255.581 161.278 257.613L161.284 268.943L161.293 304.968L161.274 323.051C161.202 324.562 160.926 326.067 159.71 327.097C158.925 327.762 157.969 328.108 156.962 328.257C153.744 328.731 150.159 328.411 146.897 328.417C140.653 328.427 134.313 328.655 128.087 328.217C126.74 327.456 125.513 326.483 125.101 324.918C124.643 323.179 124.832 321.047 124.836 319.259L124.848 310.189L124.851 272.212C124.853 268.575 125.52 252.46 124.409 250.293L124.246 250C122.58 246.968 120.309 244.108 118.298 241.292L108.307 227.345L77.4504 184.241L69.8167 173.578C68.4366 171.636 66.6972 169.632 65.8375 167.404C65.5095 166.554 65.3191 165.586 65.7389 164.734C66.285 163.625 67.753 162.291 68.9416 161.958L71.2982 161.59Z"/>
	<path fill="white" d="M307.811 167.226L332.978 167.255L332.997 231.501L307.805 231.507L307.811 167.226Z"/>
	<path fill="white" d="M72.2215 167.259L102.833 167.251L143.031 223.554L161.469 198.054L191.873 198.011L181.168 213.171L164.695 236.317L157.782 245.975C157.23 246.783 156.199 247.965 155.862 248.834C155.54 249.664 155.725 251.354 155.721 252.277L155.711 261.375L155.702 322.751L130.617 322.711C130.259 322.012 130.48 320.176 130.479 319.349L130.485 310.28L130.504 263.093L130.49 253.023C130.48 251.762 130.658 249.935 130.211 248.75C129.6 247.13 127.857 245.229 126.827 243.754L116.299 228.916L89.4209 191.319L72.2215 167.259Z"/>
	<path fill="white" d="M206.755 167.204L277.531 167.264L277.571 190.761L231.926 190.837L231.948 232.811C232.734 233.255 243.789 232.924 245.597 232.923L297.343 232.972L297.294 256.495L250.318 256.486L237.763 256.486C235.894 256.487 233.749 256.251 231.933 256.625L231.875 257.566L231.879 298.444L277.509 298.437L277.563 322.726L206.738 322.761L206.755 167.204Z"/>
</svg>
